-
http:// www . torrentkit. com        
http:// www .torrentkit. com       the fast  and The Hottest Private Tracker on the net

Please Seed back to make the speed Faster!!!

and don't forget to visit      ...... www .torrentkit .com..........
-[img]http://img535.imageshack.us/img535/5435/sanctum1h.jpg[/img]

[color=blue][size=5][b]Sanctum 2011 R5 XVID AC3 5.1 HQ Hive-CM8[/b][/size][/color]

SORRY BEEN AT THE PUB BIT LATE LOL

[b]Thx Hive

CM8 Doing It Right The First Time :D

Sources
Video: Russian R5 Sanktum.2011.D.DVD.ELEKTRI4KA
Audio: Imagines New Line and the ukrainian 5.1 Channels
thx

Video: 720x384 @bitrate 1800 2pass
Audio: English 5.1 @384
Sample: yes included

Encode:
added sharpness,chroma,rgb and denoise and since the movie is mostly dark without sunlight 
i added brightness and more contrast.
cleaned the line and entered it back to into the ukrainian 5.1 track.
Why the ukrainian track and not russian?
because the ukrainian doesnt have voice in the rears, the russian does have.
if you have any previous 5.1 release you will hear russian voice or echo of voice 
in the tunnels, because the russian effects were used.[/b]
 
http://www.imdb.com/title/tt0881320/


General
Complete name                    : Sanctum.2011.R5.XVID.AC3 5.1.HQ.Hive-CM8.avi
Format                           : AVI
Format/Info                      : Audio Video Interleave
File size                        : 1.64 GiB
Duration                         : 1h 44mn
Overall bit rate                 : 2 256 Kbps
Writing application              : Nandub v1.0rc2
Writing library                  : Nandub build 1853/release

Video
ID                               : 0
Format                           : MPEG-4 Visual
Format profile                   : Advanced Simple@L5
Format settings, BVOP            : Yes
Format settings, QPel            : Yes
Format settings, GMC             : No warppoints
Format settings, Matrix          : Default (H.263)
Muxing mode                      : Packed bitstream
Codec ID                         : XVID
Codec ID/Hint                    : XviD
Duration                         : 1h 44mn
Bit rate                         : 1 798 Kbps
Width                            : 720 pixels
Height                           : 384 pixels
Display aspect ratio             : 1.875
Frame rate                       : 25.000 fps
Color space                      : YUV
Chroma subsampling               : 4:2:0
Bit depth                        : 8 bits
Scan type                        : Progressive
Bits/(Pixel*Frame)               : 0.260
Stream size                      : 1.31 GiB (80%)
Writing library                  : XviD 1.2.1 (UTC 2008-12-04)

Audio
ID                               : 1
Format                           : AC-3
Format/Info                      : Audio Coding 3
Mode extension                   : CM (complete main)
Codec ID                         : 2000
Duration                         : 1h 44mn
Bit rate mode                    : Constant
Bit rate                         : 384 Kbps
Channel(s)                       : 6 channels
Channel positions                : Front: L C R, Side: L R, LFE
Sampling rate                    : 48.0 KHz
Bit depth                        : 16 bits
Stream size                      : 334 MiB (20%)
Alignment                        : Split accross interleaves
Interleave, duration             : 40 ms (1.00 video frame)
Interleave, preload duration     : 500 ms




Richard Roxburgh   ...  Frank
Ioan Gruffudd  	... 	Carl
Rhys Wakefield 	... 	Josh
Alice Parkinson ... 	Victoria
Dan Wyllie 	... 	Crazy George
Christopher Baker  ... 	J.D.
Nicole Downs  	... 	Liz
Allison Cratchley ... 	Judes
Cramer Cain 	... 	Luko 



An underwater cave diving team experiences a life-threatening crisis during 
an expedition to the unexplored and least accessible cave system in the world. 



[img]http://img840.imageshack.us/img840/5778/sasasasassasasaasa.png[/img]
[img]http://img825.imageshack.us/img825/7752/49720913.png[/img]
[img]http://img255.imageshack.us/img255/8108/sasaqe.png[/img]
[img]http://img39.imageshack.us/img39/7343/sasasax.png[/img]
[img]http://img43.imageshack.us/img43/4485/sasasasa.png[/img]
[img]http://img52.imageshack.us/img52/4357/sasasasasa.png[/img]
[img]http://img87.imageshack.us/img87/5758/sasasasasasa.png[/img]
[img]http://img15.imageshack.us/img15/7725/sasasasassaasa.png[/img]
[img]http://img824.imageshack.us/img824/1346/sasasasassasaasa.png[/img]






Greetz

iNK,LUSi,,MAGNET,CLASSiFiED,THC,LEGi0N,T0XiC,IMAGiNE,ViSiON,WBZ,FLAWL3SS,NOVA
Vik,Rapeseed,D2U,SAFC,goldadvance,MEMORY100,KaN1vE,Unevano,Pinnz,Wayne,Mr Hive
and all P2P groups 
Great Work Guys :D

CM8@hushmail.com